<svg data-v-423bf9ae="" xmlns="http://www.w3.org/2000/svg" viewBox="0 0 631 90" class="iconLeft"><!----><!----><!----><g data-v-423bf9ae="" id="4e23715d-cb81-4512-b369-3a206931ad90" fill="#25BDD6" transform="matrix(4.52488679972365,0,0,4.52488679972365,105.78506870327226,3.597283920490291)"><path d="M0.84 12.77L0.84 12.77Q0.73 12.77 0.67 12.68L0.67 12.68L0.67 12.68Q0.60 12.59 0.60 12.46L0.60 12.46L0.60 12.46Q0.62 12.25 0.69 12.21L0.69 12.21L0.69 12.21Q0.76 12.17 0.95 12.17L0.95 12.17L0.95 12.17Q1.36 12.17 1.55 12.02L1.55 12.02L1.55 12.02Q1.75 11.87 1.80 11.66L1.80 11.66L1.80 11.66Q1.85 11.44 1.86 11.09L1.86 11.09L1.86 5.53L1.86 5.53Q1.85 5.18 1.80 4.96L1.80 4.96L1.80 4.96Q1.75 4.75 1.55 4.60L1.55 4.60L1.55 4.60Q1.36 4.45 0.95 4.45L0.95 4.45L0.87 4.45L0.87 4.45Q0.73 4.45 0.67 4.40L0.67 4.40L0.67 4.40Q0.62 4.35 0.60 4.16L0.60 4.16L0.60 4.16Q0.60 4.03 0.67 3.94L0.67 3.94L0.67 3.94Q0.73 3.85 0.84 3.85L0.84 3.85L0.84 3.85Q1.76 3.89 2.51 3.89L2.51 3.89L6.90 3.89L6.90 3.89Q7.27 3.89 7.27 4.23L7.27 4.23L7.31 6.19L7.31 6.19Q7.31 6.31 7.18 6.39L7.18 6.39L7.18 6.39Q7.06 6.47 6.93 6.47L6.93 6.47L6.93 6.47Q6.76 6.47 6.64 6.41L6.64 6.41L6.64 6.41Q6.51 6.34 6.50 6.22L6.50 6.22L6.50 6.22Q6.38 5.53 6.25 5.17L6.25 5.17L6.25 5.17Q6.12 4.82 5.86 4.64L5.86 4.64L5.86 4.64Q5.60 4.47 5.12 4.45L5.12 4.45L3.25 4.45L3.25 8.01L5.78 8.01L5.78 8.01Q5.88 8.02 5.94 8.11L5.94 8.11L5.94 8.11Q5.99 8.20 5.99 8.33L5.99 8.33L5.99 8.33Q5.99 8.44 5.94 8.53L5.94 8.53L5.94 8.53Q5.88 8.61 5.78 8.61L5.78 8.61L3.25 8.61L3.25 11.26L3.25 11.26Q3.28 11.55 3.32 11.73L3.32 11.73L3.32 11.73Q3.36 11.90 3.57 12.04L3.57 12.04L3.57 12.04Q3.78 12.18 4.23 12.17L4.23 12.17L5.52 12.17L5.52 12.17Q6.01 12.15 6.26 12.01L6.26 12.01L6.26 12.01Q6.51 11.86 6.66 11.55L6.66 11.55L6.66 11.55Q6.80 11.24 7.01 10.54L7.01 10.54L7.01 10.54Q7.11 10.29 7.49 10.35L7.49 10.35L7.49 10.35Q7.63 10.37 7.74 10.46L7.74 10.46L7.74 10.46Q7.84 10.54 7.83 10.67L7.83 10.67L7.55 12.43L7.55 12.43Q7.50 12.61 7.42 12.67L7.42 12.67L7.42 12.67Q7.34 12.73 7.14 12.73L7.14 12.73L2.52 12.73L2.52 12.73Q1.76 12.73 0.84 12.77L0.84 12.77ZM9.00 12.77L9.00 12.77Q8.90 12.77 8.84 12.68L8.84 12.68L8.84 12.68Q8.78 12.60 8.78 12.49L8.78 12.49L8.78 12.49Q8.79 12.31 8.86 12.27L8.86 12.27L8.86 12.27Q8.93 12.24 9.11 12.24L9.11 12.24L9.11 12.24Q9.48 12.24 9.63 12.11L9.63 12.11L9.63 12.11Q9.79 11.98 9.81 11.82L9.81 11.82L9.81 11.82Q9.83 11.65 9.83 11.28L9.83 11.28L9.83 8.08L9.83 8.08Q9.83 7.71 9.81 7.55L9.81 7.55L9.81 7.55Q9.79 7.38 9.63 7.25L9.63 7.25L9.63 7.25Q9.48 7.13 9.11 7.13L9.11 7.13L9.11 7.13Q8.95 7.13 8.86 7.08L8.86 7.08L8.86 7.08Q8.78 7.03 8.78 6.85L8.78 6.85L8.78 6.85Q8.78 6.76 8.83 6.69L8.83 6.69L8.83 6.69Q8.89 6.61 9.00 6.59L9.00 6.59L9.00 6.59Q9.91 6.45 10.50 6.23L10.50 6.23L10.50 6.23Q10.74 6.16 10.82 6.15L10.82 6.15L10.86 6.15L10.86 6.15Q11.09 6.15 11.09 6.41L11.09 6.41L11.09 7.28L11.13 7.28L11.13 7.28Q11.62 6.79 12.12 6.50L12.12 6.50L12.12 6.50Q12.63 6.22 13.03 6.22L13.03 6.22L13.03 6.22Q13.50 6.22 13.77 6.56L13.77 6.56L13.77 6.56Q14.04 6.90 14.04 7.35L14.04 7.35L14.04 7.35Q14.04 7.74 13.80 8.05L13.80 8.05L13.80 8.05Q13.57 8.36 13.15 8.36L13.15 8.36L13.15 8.36Q12.95 8.36 12.80 8.27L12.80 8.27L12.80 8.27Q12.66 8.19 12.64 8.13L12.64 8.13L12.64 8.13Q12.66 8.11 12.78 7.96L12.78 7.96L12.78 7.96Q12.91 7.81 12.91 7.62L12.91 7.62L12.91 7.62Q12.91 7.36 12.78 7.21L12.78 7.21L12.78 7.21Q12.64 7.06 12.42 7.06L12.42 7.06L12.42 7.06Q12.18 7.06 11.82 7.29L11.82 7.29L11.82 7.29Q11.45 7.52 11.10 7.87L11.10 7.87L11.10 11.28L11.10 11.28Q11.10 11.65 11.13 11.82L11.13 11.82L11.13 11.82Q11.16 11.98 11.31 12.11L11.31 12.11L11.31 12.11Q11.47 12.24 11.83 12.24L11.83 12.24L11.91 12.24L11.91 12.24Q12.03 12.24 12.08 12.28L12.08 12.28L12.08 12.28Q12.14 12.32 12.15 12.49L12.15 12.49L12.15 12.49Q12.15 12.60 12.10 12.68L12.10 12.68L12.10 12.68Q12.04 12.77 11.93 12.77L11.93 12.77L11.93 12.77Q11.12 12.73 10.46 12.73L10.46 12.73L10.46 12.73Q9.83 12.73 9.00 12.77L9.00 12.77ZM17.60 15.78L17.60 15.78Q14.64 15.78 14.64 14.10L14.64 14.10L14.64 14.10Q14.64 13.62 14.95 13.27L14.95 13.27L14.95 13.27Q15.25 12.92 15.72 12.92L15.72 12.92L15.72 12.92Q15.92 12.92 16.09 13.00L16.09 13.00L16.09 13.00Q16.25 13.08 16.36 13.18L16.36 13.18L16.36 13.18Q16.46 13.29 16.46 13.34L16.46 13.34L16.46 13.34Q16.46 13.36 16.35 13.48L16.35 13.48L16.35 13.48Q16.23 13.59 16.14 13.77L16.14 13.77L16.14 13.77Q16.04 13.94 16.04 14.18L16.04 14.18L16.04 14.18Q16.04 15.26 17.89 15.26L17.89 15.26L17.89 15.26Q18.96 15.26 19.53 14.89L19.53 14.89L19.53 14.89Q20.10 14.52 20.10 13.79L20.10 13.79L20.10 13.79Q20.10 13.34 19.77 13.12L19.77 13.12L19.77 13.12Q19.43 12.89 18.93 12.83L18.93 12.83L18.93 12.83Q18.42 12.77 17.61 12.75L17.61 12.75L17.61 12.75Q16.62 12.73 16.20 12.66L16.20 12.66L16.20 12.66Q15.65 12.56 15.35 12.31L15.35 12.31L15.35 12.31Q15.05 12.05 15.05 11.52L15.05 11.52L15.05 11.52Q15.05 10.98 15.44 10.61L15.44 10.61L15.44 10.61Q15.82 10.23 16.53 10.23L16.53 10.23L16.53 10.23Q15.71 9.91 15.37 9.43L15.37 9.43L15.37 9.43Q15.04 8.95 15.04 8.34L15.04 8.34L15.04 8.34Q15.04 7.74 15.38 7.25L15.38 7.25L15.38 7.25Q15.72 6.76 16.34 6.48L16.34 6.48L16.34 6.48Q16.95 6.20 17.74 6.20L17.74 6.20L17.74 6.20Q18.75 6.20 19.29 6.48L19.29 6.48L21.21 6.12L21.24 6.12L21.24 6.12Q21.48 6.12 21.48 6.45L21.48 6.45L21.48 6.45Q21.48 6.65 21.41 6.82L21.41 6.82L21.41 6.82Q21.35 6.99 21.27 6.99L21.27 6.99L19.88 6.93L19.88 6.96L19.88 6.96Q20.12 7.20 20.29 7.59L20.29 7.59L20.29 7.59Q20.45 7.98 20.45 8.33L20.45 8.33L20.45 8.33Q20.45 8.97 20.08 9.47L20.08 9.47L20.08 9.47Q19.71 9.97 19.11 10.23L19.11 10.23L19.11 10.23Q18.51 10.50 17.85 10.50L17.85 10.50L17.23 10.50L17.23 10.50Q16.51 10.50 16.18 10.64L16.18 10.64L16.18 10.64Q15.85 10.78 15.85 11.10L15.85 11.10L15.85 11.10Q15.85 11.37 16.03 11.49L16.03 11.49L16.03 11.49Q16.21 11.62 16.66 11.65L16.66 11.65L18.58 11.72L18.58 11.72Q20.05 11.77 20.70 12.19L20.70 12.19L20.70 12.19Q21.35 12.60 21.35 13.44L21.35 13.44L21.35 13.44Q21.35 14.53 20.33 15.16L20.33 15.16L20.33 15.16Q19.31 15.78 17.60 15.78L17.60 15.78ZM17.74 10.09L17.74 10.09Q18.40 10.09 18.80 9.63L18.80 9.63L18.80 9.63Q19.19 9.16 19.19 8.33L19.19 8.33L19.19 8.33Q19.19 7.56 18.78 7.10L18.78 7.10L18.78 7.10Q18.37 6.64 17.72 6.64L17.72 6.64L17.72 6.64Q17.09 6.64 16.69 7.08L16.69 7.08L16.69 7.08Q16.28 7.53 16.28 8.30L16.28 8.30L16.28 8.30Q16.28 9.14 16.69 9.62L16.69 9.62L16.69 9.62Q17.09 10.09 17.74 10.09L17.74 10.09ZM22.27 12.77L22.27 12.77Q22.18 12.77 22.11 12.68L22.11 12.68L22.11 12.68Q22.05 12.60 22.05 12.49L22.05 12.49L22.05 12.49Q22.06 12.31 22.13 12.27L22.13 12.27L22.13 12.27Q22.20 12.24 22.39 12.24L22.39 12.24L22.39 12.24Q22.75 12.24 22.90 12.11L22.90 12.11L22.90 12.11Q23.06 11.98 23.08 11.82L23.08 11.82L23.08 11.82Q23.10 11.65 23.10 11.28L23.10 11.28L23.10 8.08L23.10 8.08Q23.10 7.71 23.08 7.55L23.08 7.55L23.08 7.55Q23.06 7.38 22.90 7.25L22.90 7.25L22.90 7.25Q22.75 7.13 22.39 7.13L22.39 7.13L22.39 7.13Q22.22 7.13 22.13 7.08L22.13 7.08L22.13 7.08Q22.05 7.03 22.05 6.85L22.05 6.85L22.05 6.85Q22.05 6.76 22.11 6.69L22.11 6.69L22.11 6.69Q22.16 6.61 22.27 6.59L22.27 6.59L22.27 6.59Q23.16 6.47 23.79 6.23L23.79 6.23L23.79 6.23Q23.98 6.16 24.11 6.15L24.11 6.15L24.15 6.15L24.15 6.15Q24.37 6.15 24.37 6.41L24.37 6.41L24.37 11.28L24.37 11.28Q24.37 11.65 24.40 11.82L24.40 11.82L24.40 11.82Q24.43 11.98 24.58 12.11L24.58 12.11L24.58 12.11Q24.74 12.24 25.10 12.24L25.10 12.24L25.19 12.24L25.19 12.24Q25.30 12.24 25.35 12.28L25.35 12.28L25.35 12.28Q25.41 12.32 25.42 12.49L25.42 12.49L25.42 12.49Q25.42 12.60 25.37 12.68L25.37 12.68L25.37 12.68Q25.31 12.77 25.20 12.77L25.20 12.77L25.20 12.77Q24.39 12.73 23.73 12.73L23.73 12.73L23.73 12.73Q23.10 12.73 22.27 12.77L22.27 12.77ZM23.66 4.59L23.66 4.59Q23.27 4.59 23.00 4.35L23.00 4.35L23.00 4.35Q22.74 4.10 22.74 3.74L22.74 3.74L22.74 3.74Q22.74 3.42 23.06 3.16L23.06 3.16L23.06 3.16Q23.38 2.91 23.79 2.91L23.79 2.91L23.79 2.91Q24.14 2.91 24.36 3.16L24.36 3.16L24.36 3.16Q24.58 3.40 24.58 3.78L24.58 3.78L24.58 3.78Q24.58 4.12 24.32 4.35L24.32 4.35L24.32 4.35Q24.05 4.59 23.66 4.59L23.66 4.59ZM26.42 12.77L26.42 12.77Q26.32 12.77 26.26 12.68L26.26 12.68L26.26 12.68Q26.19 12.60 26.19 12.49L26.19 12.49L26.19 12.49Q26.21 12.31 26.28 12.27L26.28 12.27L26.28 12.27Q26.35 12.24 26.53 12.24L26.53 12.24L26.53 12.24Q26.89 12.24 27.05 12.11L27.05 12.11L27.05 12.11Q27.20 11.98 27.22 11.82L27.22 11.82L27.22 11.82Q27.24 11.65 27.24 11.28L27.24 11.28L27.24 8.08L27.24 8.08Q27.24 7.71 27.22 7.55L27.22 7.55L27.22 7.55Q27.20 7.38 27.05 7.25L27.05 7.25L27.05 7.25Q26.89 7.13 26.53 7.13L26.53 7.13L26.53 7.13Q26.36 7.13 26.28 7.08L26.28 7.08L26.28 7.08Q26.19 7.03 26.19 6.85L26.19 6.85L26.19 6.85Q26.19 6.76 26.25 6.69L26.25 6.69L26.25 6.69Q26.31 6.61 26.42 6.59L26.42 6.59L26.42 6.59Q27.33 6.45 27.92 6.23L27.92 6.23L27.92 6.23Q28.15 6.16 28.24 6.15L28.24 6.15L28.28 6.15L28.28 6.15Q28.50 6.15 28.50 6.41L28.50 6.41L28.50 7.29L28.55 7.29L28.55 7.29Q28.95 6.92 29.20 6.71L29.20 6.71L29.20 6.71Q29.46 6.51 29.86 6.36L29.86 6.36L29.86 6.36Q30.25 6.22 30.80 6.22L30.80 6.22L30.80 6.22Q31.75 6.22 32.31 6.79L32.31 6.79L32.31 6.79Q32.87 7.36 32.87 8.30L32.87 8.30L32.87 11.28L32.87 11.28Q32.87 11.65 32.90 11.82L32.90 11.82L32.90 11.82Q32.93 11.98 33.08 12.11L33.08 12.11L33.08 12.11Q33.24 12.24 33.60 12.24L33.60 12.24L33.68 12.24L33.68 12.24Q33.80 12.24 33.85 12.28L33.85 12.28L33.85 12.28Q33.91 12.32 33.92 12.49L33.92 12.49L33.92 12.49Q33.92 12.60 33.86 12.68L33.86 12.68L33.86 12.68Q33.80 12.77 33.70 12.77L33.70 12.77L33.70 12.77Q32.89 12.73 32.23 12.73L32.23 12.73L32.23 12.73Q31.60 12.73 30.77 12.77L30.77 12.77L30.77 12.77Q30.67 12.77 30.61 12.68L30.61 12.68L30.61 12.68Q30.55 12.60 30.55 12.49L30.55 12.49L30.55 12.49Q30.56 12.31 30.63 12.27L30.63 12.27L30.63 12.27Q30.69 12.24 30.87 12.24L30.87 12.24L30.87 12.24Q31.23 12.24 31.39 12.11L31.39 12.11L31.39 12.11Q31.54 11.98 31.57 11.82L31.57 11.82L31.57 11.82Q31.60 11.65 31.60 11.28L31.60 11.28L31.60 8.32L31.60 8.32Q31.60 7.67 31.19 7.33L31.19 7.33L31.19 7.33Q30.79 6.99 30.25 6.99L30.25 6.99L30.25 6.99Q29.61 6.99 29.15 7.30L29.15 7.30L29.15 7.30Q28.69 7.62 28.52 7.95L28.52 7.95L28.52 11.28L28.52 11.28Q28.52 11.65 28.55 11.82L28.55 11.82L28.55 11.82Q28.57 11.98 28.73 12.11L28.73 12.11L28.73 12.11Q28.88 12.24 29.25 12.24L29.25 12.24L29.33 12.24L29.33 12.24Q29.44 12.24 29.50 12.28L29.50 12.28L29.50 12.28Q29.55 12.32 29.57 12.49L29.57 12.49L29.57 12.49Q29.57 12.60 29.51 12.68L29.51 12.68L29.51 12.68Q29.46 12.77 29.34 12.77L29.34 12.77L29.34 12.77Q28.53 12.73 27.87 12.73L27.87 12.73L27.87 12.73Q27.24 12.73 26.42 12.77L26.42 12.77ZM42.25 13.01L42.25 13.01Q41.06 13.01 40.08 12.44L40.08 12.44L40.08 12.44Q39.09 11.87 38.51 10.82L38.51 10.82L38.51 10.82Q37.93 9.77 37.93 8.37L37.93 8.37L37.93 8.37Q37.93 6.96 38.49 5.88L38.49 5.88L38.49 5.88Q39.05 4.80 40.08 4.21L40.08 4.21L40.08 4.21Q41.12 3.61 42.50 3.61L42.50 3.61L42.50 3.61Q43.71 3.61 44.65 4.10L44.65 4.10L44.65 4.10Q45.58 4.58 45.58 5.59L45.58 5.59L45.58 5.59Q45.60 6.22 45.21 6.66L45.21 6.66L45.21 6.66Q44.81 7.10 44.16 7.10L44.16 7.10L44.16 7.10Q43.90 7.10 43.73 7.01L43.73 7.01L43.73 7.01Q43.55 6.92 43.47 6.79L43.47 6.79L43.47 6.79Q43.39 6.66 43.40 6.59L43.40 6.59L43.40 6.59Q43.40 6.57 43.60 6.44L43.60 6.44L43.60 6.44Q43.79 6.31 43.95 6.09L43.95 6.09L43.95 6.09Q44.10 5.87 44.10 5.54L44.10 5.54L44.10 5.54Q44.10 4.91 43.67 4.54L43.67 4.54L43.67 4.54Q43.25 4.17 42.49 4.17L42.49 4.17L42.49 4.17Q41.64 4.17 40.97 4.66L40.97 4.66L40.97 4.66Q40.31 5.14 39.94 6.07L39.94 6.07L39.94 6.07Q39.56 7.00 39.56 8.29L39.56 8.29L39.56 8.29Q39.56 9.41 39.96 10.33L39.96 10.33L39.96 10.33Q40.36 11.24 41.09 11.78L41.09 11.78L41.09 11.78Q41.82 12.32 42.76 12.32L42.76 12.32L42.76 12.32Q43.51 12.32 44.05 12.01L44.05 12.01L44.05 12.01Q44.59 11.69 45.02 10.99L45.02 10.99L45.02 10.99Q45.09 10.86 45.22 10.86L45.22 10.86L45.22 10.86Q45.33 10.86 45.47 10.95L45.47 10.95L45.47 10.95Q45.70 11.10 45.70 11.26L45.70 11.26L45.70 11.26Q45.70 11.34 45.64 11.40L45.64 11.40L45.64 11.40Q45.11 12.07 44.64 12.41L44.64 12.41L44.64 12.41Q44.17 12.75 43.62 12.88L43.62 12.88L43.62 12.88Q43.08 13.01 42.25 13.01L42.25 13.01ZM50.02 12.89L50.02 12.89Q49.07 12.89 48.33 12.44L48.33 12.44L48.33 12.44Q47.59 11.98 47.17 11.24L47.17 11.24L47.17 11.24Q46.76 10.49 46.76 9.65L46.76 9.65L46.76 9.65Q46.76 8.60 47.25 7.82L47.25 7.82L47.25 7.82Q47.74 7.04 48.50 6.63L48.50 6.63L48.50 6.63Q49.25 6.22 50.02 6.22L50.02 6.22L50.02 6.22Q50.97 6.22 51.72 6.67L51.72 6.67L51.72 6.67Q52.46 7.13 52.87 7.88L52.87 7.88L52.87 7.88Q53.28 8.62 53.28 9.46L53.28 9.46L53.28 9.46Q53.28 10.51 52.79 11.29L52.79 11.29L52.79 11.29Q52.29 12.07 51.53 12.48L51.53 12.48L51.53 12.48Q50.78 12.89 50.02 12.89L50.02 12.89ZM50.02 12.38L50.02 12.38Q50.97 12.38 51.41 11.56L51.41 11.56L51.41 11.56Q51.86 10.75 51.86 9.46L51.86 9.46L51.86 9.46Q51.86 8.26 51.40 7.50L51.40 7.50L51.40 7.50Q50.95 6.73 50.02 6.73L50.02 6.73L50.02 6.73Q49.06 6.73 48.62 7.53L48.62 7.53L48.62 7.53Q48.19 8.33 48.19 9.62L48.19 9.62L48.19 9.62Q48.19 10.82 48.64 11.60L48.64 11.60L48.64 11.60Q49.08 12.38 50.02 12.38L50.02 12.38ZM54.54 12.77L54.54 12.77Q54.45 12.77 54.38 12.68L54.38 12.68L54.38 12.68Q54.32 12.60 54.32 12.49L54.32 12.49L54.32 12.49Q54.33 12.31 54.40 12.27L54.40 12.27L54.40 12.27Q54.47 12.24 54.66 12.24L54.66 12.24L54.66 12.24Q55.02 12.24 55.17 12.11L55.17 12.11L55.17 12.11Q55.33 11.98 55.35 11.82L55.35 11.82L55.35 11.82Q55.37 11.65 55.37 11.28L55.37 11.28L55.37 8.08L55.37 8.08Q55.37 7.71 55.35 7.55L55.35 7.55L55.35 7.55Q55.33 7.38 55.17 7.25L55.17 7.25L55.17 7.25Q55.02 7.13 54.66 7.13L54.66 7.13L54.66 7.13Q54.49 7.13 54.40 7.08L54.40 7.08L54.40 7.08Q54.32 7.03 54.32 6.85L54.32 6.85L54.32 6.85Q54.32 6.76 54.38 6.69L54.38 6.69L54.38 6.69Q54.43 6.61 54.54 6.59L54.54 6.59L54.54 6.59Q55.45 6.45 56.04 6.23L56.04 6.23L56.04 6.23Q56.28 6.16 56.36 6.15L56.36 6.15L56.41 6.15L56.41 6.15Q56.63 6.15 56.63 6.41L56.63 6.41L56.63 7.29L56.67 7.29L56.67 7.29Q57.08 6.92 57.33 6.71L57.33 6.71L57.33 6.71Q57.58 6.51 57.98 6.36L57.98 6.36L57.98 6.36Q58.38 6.22 58.93 6.22L58.93 6.22L58.93 6.22Q59.88 6.22 60.44 6.79L60.44 6.79L60.44 6.79Q61.00 7.36 61.00 8.30L61.00 8.30L61.00 11.28L61.00 11.28Q61.00 11.65 61.03 11.82L61.03 11.82L61.03 11.82Q61.05 11.98 61.21 12.11L61.21 12.11L61.21 12.11Q61.36 12.24 61.73 12.24L61.73 12.24L61.81 12.24L61.81 12.24Q61.92 12.24 61.98 12.28L61.98 12.28L61.98 12.28Q62.03 12.32 62.05 12.49L62.05 12.49L62.05 12.49Q62.05 12.60 61.99 12.68L61.99 12.68L61.99 12.68Q61.92 12.77 61.82 12.77L61.82 12.77L61.82 12.77Q61.01 12.73 60.35 12.73L60.35 12.73L60.35 12.73Q59.72 12.73 58.90 12.77L58.90 12.77L58.90 12.77Q58.80 12.77 58.74 12.68L58.74 12.68L58.74 12.68Q58.67 12.60 58.67 12.49L58.67 12.49L58.67 12.49Q58.69 12.31 58.75 12.27L58.75 12.27L58.75 12.27Q58.81 12.24 59.00 12.24L59.00 12.24L59.00 12.24Q59.36 12.24 59.51 12.11L59.51 12.11L59.51 12.11Q59.67 11.98 59.70 11.82L59.70 11.82L59.70 11.82Q59.72 11.65 59.72 11.28L59.72 11.28L59.72 8.32L59.72 8.32Q59.72 7.67 59.32 7.33L59.32 7.33L59.32 7.33Q58.91 6.99 58.38 6.99L58.38 6.99L58.38 6.99Q57.74 6.99 57.27 7.30L57.27 7.30L57.27 7.30Q56.81 7.62 56.64 7.95L56.64 7.95L56.64 11.28L56.64 11.28Q56.64 11.65 56.67 11.82L56.67 11.82L56.67 11.82Q56.70 11.98 56.85 12.11L56.85 12.11L56.85 12.11Q57.01 12.24 57.37 12.24L57.37 12.24L57.46 12.24L57.46 12.24Q57.57 12.24 57.62 12.28L57.62 12.28L57.62 12.28Q57.68 12.32 57.69 12.49L57.69 12.49L57.69 12.49Q57.69 12.60 57.64 12.68L57.64 12.68L57.64 12.68Q57.58 12.77 57.47 12.77L57.47 12.77L57.47 12.77Q56.66 12.73 56.00 12.73L56.00 12.73L56.00 12.73Q55.37 12.73 54.54 12.77L54.54 12.77ZM65.30 12.89L65.30 12.89Q64.18 12.89 63.48 12.50L63.48 12.50L63.48 12.50Q62.78 12.11 62.78 11.40L62.78 11.40L62.78 11.40Q62.78 10.99 63.02 10.74L63.02 10.74L63.02 10.74Q63.27 10.49 63.66 10.49L63.66 10.49L63.66 10.49Q63.88 10.49 64.06 10.61L64.06 10.61L64.06 10.61Q64.23 10.74 64.23 10.81L64.23 10.81L64.23 10.81Q64.23 10.82 64.07 10.99L64.07 10.99L64.07 10.99Q63.91 11.16 63.91 11.47L63.91 11.47L63.91 11.47Q63.91 11.89 64.30 12.13L64.30 12.13L64.30 12.13Q64.68 12.38 65.41 12.38L65.41 12.38L65.41 12.38Q66.07 12.38 66.44 12.09L66.44 12.09L66.44 12.09Q66.81 11.80 66.81 11.28L66.81 11.28L66.81 11.28Q66.81 10.93 66.60 10.71L66.60 10.71L66.60 10.71Q66.39 10.49 66.07 10.36L66.07 10.36L66.07 10.36Q65.76 10.23 65.20 10.07L65.20 10.07L65.20 10.07Q64.51 9.87 64.08 9.67L64.08 9.67L64.08 9.67Q63.64 9.48 63.34 9.09L63.34 9.09L63.34 9.09Q63.03 8.69 63.03 8.06L63.03 8.06L63.03 8.06Q63.03 7.48 63.39 7.06L63.39 7.06L63.39 7.06Q63.76 6.64 64.34 6.43L64.34 6.43L64.34 6.43Q64.92 6.22 65.56 6.22L65.56 6.22L65.56 6.22Q66.39 6.22 67.00 6.57L67.00 6.57L67.00 6.57Q67.61 6.92 67.61 7.55L67.61 7.55L67.61 7.55Q67.61 7.92 67.38 8.19L67.38 8.19L67.38 8.19Q67.14 8.46 66.77 8.46L66.77 8.46L66.77 8.46Q66.54 8.46 66.37 8.33L66.37 8.33L66.37 8.33Q66.19 8.20 66.19 8.13L66.19 8.13L66.19 8.13Q66.19 8.12 66.30 8.02L66.30 8.02L66.30 8.02Q66.42 7.92 66.51 7.79L66.51 7.79L66.51 7.79Q66.60 7.66 66.60 7.48L66.60 7.48L66.60 7.48Q66.57 7.10 66.22 6.89L66.22 6.89L66.22 6.89Q65.87 6.68 65.39 6.68L65.39 6.68L65.39 6.68Q64.86 6.68 64.46 6.92L64.46 6.92L64.46 6.92Q64.06 7.17 64.06 7.60L64.06 7.60L64.06 7.60Q64.06 7.99 64.23 8.23L64.23 8.23L64.23 8.23Q64.40 8.46 64.74 8.60L64.74 8.60L64.74 8.60Q65.07 8.74 65.80 8.97L65.80 8.97L65.80 8.97Q66.54 9.21 66.96 9.42L66.96 9.42L66.96 9.42Q67.38 9.62 67.63 9.96L67.63 9.96L67.63 9.96Q67.87 10.30 67.87 10.86L67.87 10.86L67.87 10.86Q67.87 11.44 67.54 11.91L67.54 11.91L67.54 11.91Q67.20 12.38 66.61 12.64L66.61 12.64L66.61 12.64Q66.02 12.89 65.30 12.89L65.30 12.89ZM71.81 12.89L71.81 12.89Q70.85 12.89 70.29 12.32L70.29 12.32L70.29 12.32Q69.73 11.75 69.73 10.81L69.73 10.81L69.73 8.22L69.73 8.22Q69.73 7.85 69.71 7.69L69.71 7.69L69.71 7.69Q69.69 7.52 69.54 7.39L69.54 7.39L69.54 7.39Q69.38 7.27 69.02 7.27L69.02 7.27L69.02 7.27Q68.85 7.27 68.77 7.22L68.77 7.22L68.77 7.22Q68.68 7.17 68.68 6.99L68.68 6.99L68.68 6.99Q68.68 6.90 68.74 6.83L68.74 6.83L68.74 6.83Q68.80 6.75 68.91 6.73L68.91 6.73L68.91 6.73Q69.79 6.61 70.42 6.37L70.42 6.37L70.42 6.37Q70.62 6.30 70.74 6.29L70.74 6.29L70.78 6.29L70.78 6.29Q71.01 6.29 71.01 6.55L71.01 6.55L71.01 10.79L71.01 10.79Q71.01 11.44 71.41 11.78L71.41 11.78L71.41 11.78Q71.82 12.12 72.35 12.12L72.35 12.12L72.35 12.12Q73.01 12.12 73.47 11.80L73.47 11.80L73.47 11.80Q73.93 11.48 74.09 11.16L74.09 11.16L74.09 8.22L74.09 8.22Q74.09 7.85 74.07 7.69L74.07 7.69L74.07 7.69Q74.05 7.52 73.89 7.39L73.89 7.39L73.89 7.39Q73.74 7.27 73.37 7.27L73.37 7.27L73.37 7.27Q73.21 7.27 73.12 7.22L73.12 7.22L73.12 7.22Q73.04 7.17 73.04 6.99L73.04 6.99L73.04 6.99Q73.04 6.90 73.09 6.83L73.09 6.83L73.09 6.83Q73.15 6.75 73.26 6.73L73.26 6.73L73.26 6.73Q74.14 6.61 74.77 6.37L74.77 6.37L74.77 6.37Q74.97 6.30 75.10 6.29L75.10 6.29L75.14 6.29L75.14 6.29Q75.36 6.29 75.36 6.55L75.36 6.55L75.36 11.40L75.36 11.40Q75.36 12.22 76.47 12.22L76.47 12.22L76.47 12.22Q76.71 12.22 76.71 12.49L76.71 12.49L76.71 12.49Q76.71 12.68 76.47 12.73L76.47 12.73L74.21 12.88L74.21 12.88Q74.12 12.88 74.10 12.82L74.10 12.82L74.10 12.82Q74.09 12.75 74.09 12.60L74.09 12.60L74.09 11.82L74.06 11.82L74.06 11.82Q73.65 12.19 73.40 12.40L73.40 12.40L73.40 12.40Q73.15 12.60 72.75 12.75L72.75 12.75L72.75 12.75Q72.35 12.89 71.81 12.89L71.81 12.89ZM77.34 12.77L77.34 12.77Q77.24 12.77 77.18 12.68L77.18 12.68L77.18 12.68Q77.11 12.60 77.11 12.49L77.11 12.49L77.11 12.49Q77.13 12.31 77.19 12.27L77.19 12.27L77.19 12.27Q77.25 12.24 77.43 12.24L77.43 12.24L77.43 12.24Q77.80 12.24 77.95 12.11L77.95 12.11L77.95 12.11Q78.11 11.98 78.13 11.82L78.13 11.82L78.13 11.82Q78.16 11.65 78.16 11.28L78.16 11.28L78.16 4.45L78.16 4.45Q78.16 4.09 78.14 3.92L78.14 3.92L78.14 3.92Q78.12 3.75 77.97 3.63L77.97 3.63L77.97 3.63Q77.81 3.50 77.45 3.50L77.45 3.50L77.45 3.50Q77.28 3.50 77.20 3.45L77.20 3.45L77.20 3.45Q77.11 3.40 77.11 3.22L77.11 3.22L77.11 3.22Q77.11 3.14 77.17 3.06L77.17 3.06L77.17 3.06Q77.22 2.98 77.34 2.97L77.34 2.97L77.34 2.97Q78.22 2.84 78.85 2.60L78.85 2.60L78.85 2.60Q79.04 2.53 79.17 2.52L79.17 2.52L79.21 2.52L79.21 2.52Q79.44 2.52 79.44 2.79L79.44 2.79L79.44 11.28L79.44 11.28Q79.44 11.65 79.46 11.82L79.46 11.82L79.46 11.82Q79.49 11.98 79.65 12.11L79.65 12.11L79.65 12.11Q79.80 12.24 80.16 12.24L80.16 12.24L80.25 12.24L80.25 12.24Q80.36 12.24 80.42 12.28L80.42 12.28L80.42 12.28Q80.47 12.32 80.49 12.49L80.49 12.49L80.49 12.49Q80.49 12.60 80.43 12.68L80.43 12.68L80.43 12.68Q80.37 12.77 80.26 12.77L80.26 12.77L80.26 12.77Q79.45 12.73 78.79 12.73L78.79 12.73L78.79 12.73Q78.16 12.73 77.34 12.77L77.34 12.77ZM83.82 12.96L83.82 12.96Q83.13 12.96 82.64 12.46L82.64 12.46L82.64 12.46Q82.15 11.96 82.15 11.02L82.15 11.02L82.15 6.90L81.34 6.93L81.34 6.93Q81.26 6.93 81.20 6.85L81.20 6.85L81.20 6.85Q81.14 6.78 81.14 6.68L81.14 6.68L81.14 6.68Q81.14 6.55 81.19 6.46L81.19 6.46L81.19 6.46Q81.24 6.37 81.34 6.36L81.34 6.36L81.34 6.36Q81.83 6.26 82.10 6.04L82.10 6.04L82.10 6.04Q82.38 5.82 82.50 5.57L82.50 5.57L82.50 5.57Q82.63 5.31 82.81 4.77L82.81 4.77L82.81 4.77Q82.88 4.59 83.12 4.59L83.12 4.59L83.12 4.59Q83.22 4.59 83.31 4.64L83.31 4.64L83.31 4.64Q83.41 4.69 83.41 4.79L83.41 4.79L83.31 6.38L84.95 6.29L84.98 6.29L84.98 6.29Q85.16 6.29 85.16 6.55L85.16 6.55L85.16 6.55Q85.16 6.71 85.11 6.84L85.11 6.84L85.11 6.84Q85.06 6.97 84.99 6.97L84.99 6.97L83.43 6.93L83.43 11.19L83.43 11.19Q83.43 11.65 83.62 11.96L83.62 11.96L83.62 11.96Q83.80 12.26 84.24 12.26L84.24 12.26L84.24 12.26Q84.67 12.26 85.01 12.11L85.01 12.11L85.01 12.11Q85.19 12.04 85.23 12.04L85.23 12.04L85.23 12.04Q85.33 12.04 85.39 12.12L85.39 12.12L85.39 12.12Q85.44 12.19 85.50 12.32L85.50 12.32L85.50 12.32Q85.51 12.35 85.51 12.39L85.51 12.39L85.51 12.39Q85.51 12.45 85.43 12.52L85.43 12.52L85.43 12.52Q85.02 12.78 84.67 12.87L84.67 12.87L84.67 12.87Q84.31 12.96 83.82 12.96L83.82 12.96ZM88.45 12.89L88.45 12.89Q87.61 12.89 87.09 12.42L87.09 12.42L87.09 12.42Q86.58 11.94 86.58 11.23L86.58 11.23L86.58 11.23Q86.58 10.35 87.16 9.91L87.16 9.91L87.16 9.91Q87.75 9.46 88.56 9.33L88.56 9.33L88.56 9.33Q89.38 9.20 90.66 9.13L90.66 9.13L90.66 8.02L90.66 8.02Q90.66 7.34 90.32 6.98L90.32 6.98L90.32 6.98Q89.98 6.62 89.22 6.62L89.22 6.62L89.22 6.62Q88.79 6.62 88.47 6.89L88.47 6.89L88.47 6.89Q88.14 7.15 88.14 7.60L88.14 7.60L88.14 7.60Q88.14 7.83 88.25 7.97L88.25 7.97L88.25 7.97Q88.35 8.12 88.47 8.22L88.47 8.22L88.47 8.22Q88.59 8.32 88.59 8.33L88.59 8.33L88.59 8.33Q88.59 8.41 88.42 8.55L88.42 8.55L88.42 8.55Q88.24 8.68 87.99 8.68L87.99 8.68L87.99 8.68Q87.57 8.68 87.33 8.37L87.33 8.37L87.33 8.37Q87.08 8.06 87.08 7.64L87.08 7.64L87.08 7.64Q87.08 6.92 87.73 6.57L87.73 6.57L87.73 6.57Q88.38 6.22 89.31 6.22L89.31 6.22L89.31 6.22Q90.45 6.22 91.18 6.65L91.18 6.65L91.18 6.65Q91.90 7.08 91.90 8.26L91.90 8.26L91.90 11.52L91.90 11.52Q91.91 11.82 92.08 12.08L92.08 12.08L92.08 12.08Q92.25 12.35 92.62 12.35L92.62 12.35L92.62 12.35Q92.74 12.35 92.79 12.39L92.79 12.39L92.79 12.39Q92.83 12.43 92.83 12.57L92.83 12.57L92.83 12.57Q92.83 12.74 92.58 12.82L92.58 12.82L92.58 12.82Q92.32 12.89 92.06 12.89L92.06 12.89L92.06 12.89Q91.53 12.89 91.13 12.59L91.13 12.59L91.13 12.59Q90.72 12.28 90.66 11.76L90.66 11.76L90.66 11.76Q90.37 12.31 89.76 12.60L89.76 12.60L89.76 12.60Q89.15 12.89 88.45 12.89L88.45 12.89ZM88.90 12.14L88.90 12.14Q89.38 12.14 89.78 11.90L89.78 11.90L89.78 11.90Q90.19 11.66 90.43 11.25L90.43 11.25L90.43 11.25Q90.66 10.84 90.66 10.33L90.66 10.33L90.66 9.53L90.66 9.53Q89.19 9.65 88.59 10.01L88.59 10.01L88.59 10.01Q87.99 10.37 87.99 11.19L87.99 11.19L87.99 11.19Q87.99 12.14 88.90 12.14L88.90 12.14ZM93.80 12.77L93.80 12.77Q93.70 12.77 93.64 12.68L93.64 12.68L93.64 12.68Q93.58 12.60 93.58 12.49L93.58 12.49L93.58 12.49Q93.59 12.31 93.66 12.27L93.66 12.27L93.66 12.27Q93.73 12.24 93.91 12.24L93.91 12.24L93.91 12.24Q94.28 12.24 94.43 12.11L94.43 12.11L94.43 12.11Q94.58 11.98 94.61 11.82L94.61 11.82L94.61 11.82Q94.63 11.65 94.63 11.28L94.63 11.28L94.63 8.08L94.63 8.08Q94.63 7.71 94.61 7.55L94.61 7.55L94.61 7.55Q94.58 7.38 94.43 7.25L94.43 7.25L94.43 7.25Q94.28 7.13 93.91 7.13L93.91 7.13L93.91 7.13Q93.74 7.13 93.66 7.08L93.66 7.08L93.66 7.08Q93.58 7.03 93.58 6.85L93.58 6.85L93.58 6.85Q93.58 6.76 93.63 6.69L93.63 6.69L93.63 6.69Q93.69 6.61 93.80 6.59L93.80 6.59L93.80 6.59Q94.71 6.45 95.30 6.23L95.30 6.23L95.30 6.23Q95.54 6.16 95.62 6.15L95.62 6.15L95.66 6.15L95.66 6.15Q95.89 6.15 95.89 6.41L95.89 6.41L95.89 7.29L95.93 7.29L95.93 7.29Q96.33 6.92 96.59 6.71L96.59 6.71L96.59 6.71Q96.84 6.51 97.24 6.36L97.24 6.36L97.24 6.36Q97.64 6.22 98.18 6.22L98.18 6.22L98.18 6.22Q99.13 6.22 99.69 6.79L99.69 6.79L99.69 6.79Q100.25 7.36 100.25 8.30L100.25 8.30L100.25 11.28L100.25 11.28Q100.25 11.65 100.28 11.82L100.28 11.82L100.28 11.82Q100.31 11.98 100.46 12.11L100.46 12.11L100.46 12.11Q100.62 12.24 100.98 12.24L100.98 12.24L101.07 12.24L101.07 12.24Q101.18 12.24 101.23 12.28L101.23 12.28L101.23 12.28Q101.29 12.32 101.30 12.49L101.30 12.49L101.30 12.49Q101.30 12.60 101.24 12.68L101.24 12.68L101.24 12.68Q101.18 12.77 101.08 12.77L101.08 12.77L101.08 12.77Q100.27 12.73 99.61 12.73L99.61 12.73L99.61 12.73Q98.98 12.73 98.15 12.77L98.15 12.77L98.15 12.77Q98.06 12.77 97.99 12.68L97.99 12.68L97.99 12.68Q97.93 12.60 97.93 12.49L97.93 12.49L97.93 12.49Q97.94 12.31 98.01 12.27L98.01 12.27L98.01 12.27Q98.07 12.24 98.25 12.24L98.25 12.24L98.25 12.24Q98.62 12.24 98.77 12.11L98.77 12.11L98.77 12.11Q98.92 11.98 98.95 11.82L98.95 11.82L98.95 11.82Q98.98 11.65 98.98 11.28L98.98 11.28L98.98 8.32L98.98 8.32Q98.98 7.67 98.57 7.33L98.57 7.33L98.57 7.33Q98.17 6.99 97.64 6.99L97.64 6.99L97.64 6.99Q96.99 6.99 96.53 7.30L96.53 7.30L96.53 7.30Q96.07 7.62 95.90 7.95L95.90 7.95L95.90 11.28L95.90 11.28Q95.90 11.65 95.93 11.82L95.93 11.82L95.93 11.82Q95.96 11.98 96.11 12.11L96.11 12.11L96.11 12.11Q96.26 12.24 96.63 12.24L96.63 12.24L96.71 12.24L96.71 12.24Q96.82 12.24 96.88 12.28L96.88 12.28L96.88 12.28Q96.94 12.32 96.95 12.49L96.95 12.49L96.95 12.49Q96.95 12.60 96.89 12.68L96.89 12.68L96.89 12.68Q96.84 12.77 96.73 12.77L96.73 12.77L96.73 12.77Q95.91 12.73 95.26 12.73L95.26 12.73L95.26 12.73Q94.63 12.73 93.80 12.77L93.80 12.77ZM105.13 12.89L105.13 12.89Q103.70 12.89 102.89 11.98L102.89 11.98L102.89 11.98Q102.07 11.07 102.07 9.55L102.07 9.55L102.07 9.55Q102.10 8.60 102.54 7.85L102.54 7.85L102.54 7.85Q102.98 7.10 103.73 6.67L103.73 6.67L103.73 6.67Q104.47 6.24 105.36 6.22L105.36 6.22L105.36 6.22Q106.26 6.22 106.91 6.55L106.91 6.55L106.91 6.55Q107.56 6.89 107.56 7.67L107.56 7.67L107.56 7.67Q107.56 8.11 107.30 8.44L107.30 8.44L107.30 8.44Q107.04 8.76 106.61 8.76L106.61 8.76L106.61 8.76Q106.34 8.76 106.16 8.62L106.16 8.62L106.16 8.62Q105.97 8.48 105.97 8.39L105.97 8.39L105.97 8.39Q105.97 8.37 106.09 8.26L106.09 8.26L106.09 8.26Q106.22 8.15 106.32 7.99L106.32 7.99L106.32 7.99Q106.43 7.83 106.43 7.62L106.43 7.62L106.43 7.62Q106.43 7.18 106.11 6.96L106.11 6.96L106.11 6.96Q105.80 6.73 105.35 6.73L105.35 6.73L105.35 6.73Q104.27 6.73 103.89 7.53L103.89 7.53L103.89 7.53Q103.50 8.32 103.50 9.51L103.50 9.51L103.50 9.51Q103.50 10.68 104.03 11.44L104.03 11.44L104.03 11.44Q104.57 12.19 105.45 12.19L105.45 12.19L105.45 12.19Q106.05 12.19 106.48 11.94L106.48 11.94L106.48 11.94Q106.90 11.68 107.25 11.14L107.25 11.14L107.25 11.14Q107.30 11.07 107.39 11.07L107.39 11.07L107.39 11.07Q107.46 11.07 107.55 11.12L107.55 11.12L107.55 11.12Q107.62 11.14 107.66 11.21L107.66 11.21L107.66 11.21Q107.70 11.28 107.70 11.35L107.70 11.35L107.70 11.35Q107.70 11.40 107.66 11.47L107.66 11.47L107.66 11.47Q107.20 12.12 106.51 12.51L106.51 12.51L106.51 12.51Q105.83 12.89 105.13 12.89L105.13 12.89ZM109.49 15.78L109.49 15.78Q108.89 15.78 108.42 15.39L108.42 15.39L108.42 15.39Q107.95 15.01 107.95 14.48L107.95 14.48L107.95 14.48Q107.95 13.85 108.30 13.67L108.30 13.67L108.30 13.67Q108.65 13.50 108.85 13.50L108.85 13.50L108.85 13.50Q109.09 13.50 109.24 13.59L109.24 13.59L109.24 13.59Q109.40 13.69 109.40 13.78L109.40 13.78L109.40 13.78Q109.40 13.80 109.28 13.92L109.28 13.92L109.28 13.92Q109.17 14.03 109.17 14.31L109.17 14.31L109.17 14.31Q109.17 14.59 109.35 14.80L109.35 14.80L109.35 14.80Q109.52 15.01 109.84 15.01L109.84 15.01L109.84 15.01Q110.73 15.01 111.57 13.20L111.57 13.20L111.57 13.20Q111.62 13.01 111.62 12.91L111.62 12.91L111.62 12.91Q111.62 12.77 111.55 12.56L111.55 12.56L111.55 12.56Q111.27 11.93 110.61 10.22L110.61 10.22L110.61 10.22Q110.04 8.69 109.68 7.90L109.68 7.90L109.68 7.90Q109.44 7.35 109.23 7.15L109.23 7.15L109.23 7.15Q109.02 6.94 108.61 6.89L108.61 6.89L108.61 6.89Q108.57 6.87 108.46 6.86L108.46 6.86L108.46 6.86Q108.35 6.85 108.32 6.79L108.32 6.79L108.32 6.79Q108.29 6.73 108.29 6.59L108.29 6.59L108.29 6.59Q108.29 6.43 108.38 6.38L108.38 6.38L108.38 6.38Q108.47 6.34 108.61 6.34L108.61 6.34L108.61 6.34Q108.74 6.33 108.78 6.33L108.78 6.33L108.78 6.33Q109.63 6.29 110.12 6.57L110.12 6.57L110.12 6.57Q110.61 6.86 110.94 7.57L110.94 7.57L110.94 7.57Q111.24 8.29 111.48 8.93L111.48 8.93L111.48 8.93Q112.04 10.44 112.39 11.14L112.39 11.14L112.43 11.14L113.81 7.48L113.81 7.48Q113.88 7.24 113.88 7.14L113.88 7.14L113.88 7.14Q113.88 6.99 113.74 6.93L113.74 6.93L113.74 6.93Q113.60 6.87 113.27 6.87L113.27 6.87L113.19 6.87L113.19 6.87Q113.08 6.87 113.03 6.83L113.03 6.83L113.03 6.83Q112.98 6.79 112.97 6.62L112.97 6.62L112.97 6.62Q112.97 6.52 113.02 6.43L113.02 6.43L113.02 6.43Q113.06 6.34 113.16 6.34L113.16 6.34L113.16 6.34Q113.96 6.38 114.52 6.38L114.52 6.38L114.52 6.38Q114.74 6.38 115.39 6.36L115.39 6.36L115.68 6.34L115.68 6.34Q115.78 6.34 115.84 6.43L115.84 6.43L115.84 6.43Q115.89 6.52 115.89 6.62L115.89 6.62L115.89 6.62Q115.88 6.79 115.82 6.83L115.82 6.83L115.82 6.83Q115.77 6.87 115.65 6.87L115.65 6.87L115.65 6.87Q115.14 6.87 114.86 7.04L114.86 7.04L114.86 7.04Q114.58 7.21 114.38 7.70L114.38 7.70L114.38 7.70Q114.06 8.50 113.34 10.26L113.34 10.26L113.34 10.26Q112.63 12.03 112.28 12.87L112.28 12.87L112.28 12.87Q111.78 14.07 111.10 14.92L111.10 14.92L111.10 14.92Q110.43 15.78 109.49 15.78L109.49 15.78Z"></path></g><!----><g data-v-423bf9ae="" id="68db49b3-e784-4e93-8cc4-d2df49d11e8a" transform="matrix(3.75,0,0,3.75,-11.05000114440918,-11.25)" stroke="none" fill="#25BDD6"><path d="M21.8 17.4c-.6 0-1-.4-1-1s.4-1 1-1c1.7 0 3-1.4 3-3 0-1.4-1-2.7-2.5-2.9-.7-.1-1.3-.6-1.5-1.3-.3-.9-1.1-1.4-2-1.4-.3 0-.7.1-1 .2-.9.4-2 .2-2.5-.6-.6-.9-1.6-1.4-2.7-1.4-1.9 0-3.4 1.5-3.4 3.4 0 .7-.5 1.9-1.5 1.9-1.4 0-2.5 1.1-2.5 2.5s1.1 2.5 2.5 2.5c.6 0 1 .4 1 1s-.4 1-1 1c-2.5 0-4.5-2-4.5-4.5 0-2.3 1.8-4.2 4-4.5C7.2 5.4 9.6 3 12.6 3c1.7 0 3.3.8 4.3 2.1.6-.3 1.3-.4 1.9-.4 1.8 0 3.3 1.1 3.9 2.8 2.4.4 4.1 2.5 4.1 4.9 0 2.8-2.2 5-5 5zM14.8 27c-2.8 0-5.2-2-5.2-4.5V19c0-.6.4-1 1-1h8.3c.6 0 1 .4 1 1v3.5c0 2.5-2.3 4.5-5.1 4.5zm-3.2-7v2.5c0 1.4 1.4 2.5 3.2 2.5s3.2-1.1 3.2-2.5V20h-6.4z"></path><path d="M17.2 20c-.6 0-1-.4-1-1v-3.8c0-.6.4-1 1-1s1 .4 1 1V19c0 .5-.5 1-1 1zM12.4 20c-.6 0-1-.4-1-1v-3.8c0-.6.4-1 1-1s1 .4 1 1V19c0 .5-.5 1-1 1z"></path><g><path d="M14.8 23.5c-.3 0-.5-.1-.7-.3-.2-.2-.3-.4-.3-.7 0-.3.1-.5.3-.7.4-.4 1.1-.4 1.4 0 .2.2.3.5.3.7 0 .3-.1.5-.3.7-.2.2-.5.3-.7.3z"></path></g></g><!----></svg>